<?xml version="1.0" encoding="UTF-8" standalone="no"?><svg xmlns="http://www.w3.org/2000/svg" xmlns:xlink="http://www.w3.org/1999/xlink" contentScriptType="application/ecmascript" contentStyleType="text/css" height="1027.5px" preserveAspectRatio="none" style="width:1750px;height:1027px;" version="1.1" viewBox="0 0 1750 1027" width="1750px" zoomAndPan="magnify"><defs><filter height="300%" id="f1abkm36dy29rq" width="300%" x="-1" y="-1"><feGaussianBlur result="blurOut" stdDeviation="5.0"/><feColorMatrix in="blurOut" result="blurOut2" type="matrix" values="0 0 0 0 0 0 0 0 0 0 0 0 0 0 0 0 0 0 .4 0"/><feOffset dx="10.0" dy="10.0" in="blurOut2" result="blurOut3"/><feBlend in="SourceGraphic" in2="blurOut3" mode="normal"/></filter></defs><g><rect fill="none" height="86.2896" rx="18.75" ry="18.75" style="stroke:#000000;stroke-width:5.0;" width="487.5" x="614.375" y="5"/><text fill="#000000" font-family="sans-serif" font-size="45" lengthAdjust="spacing" textLength="447.5" x="634.375" y="65.6047">Capture components</text><!--MD5=[e4faacc5b8aef66b11ab0c816bbbc7f8]
class Scene--><rect codeLine="9" fill="#ADD8E6" filter="url(#f1abkm36dy29rq)" height="106.7206" id="Scene" style="stroke:#0000FF;stroke-width:3.75;" width="202.5" x="17.5" y="525.7396"/><ellipse cx="55" cy="579.0999" fill="#ADD1B2" rx="27.5" ry="27.5" style="stroke:#0000FF;stroke-width:2.5;"/><path d="M53.6719,596.4046 Q49.2969,596.4046 46.4453,594.5687 Q43.6328,592.6937 42.2266,589.3343 Q40.8594,585.9358 40.8594,581.4437 Q40.8594,576.3655 42.5,572.7327 Q44.1406,569.0999 47.3438,567.1468 Q50.5469,565.1937 55.2344,565.1937 Q57.4609,565.1937 59.1406,565.6624 Q60.8203,566.0921 62.5391,566.9515 L60.5078,571.9905 Q58.9453,571.2093 57.5781,570.8968 Q56.25,570.5843 55.0391,570.5843 Q52.1094,570.5843 50.3516,571.9124 Q48.5938,573.2405 47.8516,575.6233 Q47.1094,578.0062 47.1094,581.1702 Q47.1094,586.2093 48.9063,588.6312 Q50.7031,591.014 54.6875,591.014 Q56.1719,591.014 57.7344,590.6233 Q59.2969,590.2327 61.3672,589.2952 L61.3672,594.8421 Q59.5313,595.6233 57.5391,596.014 Q55.5859,596.4046 53.6719,596.4046 Z " fill="#000000"/><text fill="#000000" font-family="sans-serif" font-size="30" font-style="italic" lengthAdjust="spacing" textLength="132.5" x="85" y="570.3098">«Blender»</text><text fill="#000000" font-family="sans-serif" font-size="30" lengthAdjust="spacing" textLength="85" x="108.75" y="611.1701">Scene</text><!--MD5=[b47f00dd0504bda501cad5ceb6604e40]
class Sound--><rect codeLine="10" fill="#ADD8E6" filter="url(#f1abkm36dy29rq)" height="106.7206" id="Sound" style="stroke:#0000FF;stroke-width:3.75;" width="202.5" x="17.5" y="886.5896"/><ellipse cx="55" cy="939.9499" fill="#ADD1B2" rx="27.5" ry="27.5" style="stroke:#0000FF;stroke-width:2.5;"/><path d="M53.6719,957.2546 Q49.2969,957.2546 46.4453,955.4187 Q43.6328,953.5437 42.2266,950.1843 Q40.8594,946.7858 40.8594,942.2937 Q40.8594,937.2155 42.5,933.5827 Q44.1406,929.9499 47.3438,927.9968 Q50.5469,926.0437 55.2344,926.0437 Q57.4609,926.0437 59.1406,926.5124 Q60.8203,926.9421 62.5391,927.8015 L60.5078,932.8405 Q58.9453,932.0593 57.5781,931.7468 Q56.25,931.4343 55.0391,931.4343 Q52.1094,931.4343 50.3516,932.7624 Q48.5938,934.0905 47.8516,936.4733 Q47.1094,938.8562 47.1094,942.0202 Q47.1094,947.0593 48.9063,949.4812 Q50.7031,951.864 54.6875,951.864 Q56.1719,951.864 57.7344,951.4733 Q59.2969,951.0827 61.3672,950.1452 L61.3672,955.6921 Q59.5313,956.4733 57.5391,956.864 Q55.5859,957.2546 53.6719,957.2546 Z " fill="#000000"/><text fill="#000000" font-family="sans-serif" font-size="30" font-style="italic" lengthAdjust="spacing" textLength="132.5" x="85" y="931.1598">«Blender»</text><text fill="#000000" font-family="sans-serif" font-size="30" lengthAdjust="spacing" textLength="87.5" x="107.5" y="972.0201">Sound</text><!--MD5=[c7e500fa6390bd81062eb1d6c99b636c]
class Cue--><rect codeLine="15" fill="#FEFECE" filter="url(#f1abkm36dy29rq)" height="212.3642" id="Cue" style="stroke:#A80036;stroke-width:3.75;" width="295" x="1421.25" y="474.0896"/><ellipse cx="1530.75" cy="514.0896" fill="#ADD1B2" rx="27.5" ry="27.5" style="stroke:#A80036;stroke-width:2.5;"/><path d="M1529.4219,531.3943 Q1525.0469,531.3943 1522.1953,529.5584 Q1519.3828,527.6834 1517.9766,524.324 Q1516.6094,520.9256 1516.6094,516.4334 Q1516.6094,511.3552 1518.25,507.7224 Q1519.8906,504.0896 1523.0938,502.1365 Q1526.2969,500.1834 1530.9844,500.1834 Q1533.2109,500.1834 1534.8906,500.6521 Q1536.5703,501.0818 1538.2891,501.9412 L1536.2578,506.9802 Q1534.6953,506.199 1533.3281,505.8865 Q1532,505.574 1530.7891,505.574 Q1527.8594,505.574 1526.1016,506.9021 Q1524.3438,508.2302 1523.6016,510.6131 Q1522.8594,512.9959 1522.8594,516.1599 Q1522.8594,521.199 1524.6563,523.6209 Q1526.4531,526.0037 1530.4375,526.0037 Q1531.9219,526.0037 1533.4844,525.6131 Q1535.0469,525.2224 1537.1172,524.2849 L1537.1172,529.8318 Q1535.2813,530.6131 1533.2891,531.0037 Q1531.3359,531.3943 1529.4219,531.3943 Z " fill="#000000"/><text fill="#000000" font-family="sans-serif" font-size="30" lengthAdjust="spacing" textLength="55" x="1581.75" y="525.7297">Cue</text><line style="stroke:#A80036;stroke-width:3.75;" x1="1423.75" x2="1713.75" y1="554.0896" y2="554.0896"/><text fill="#000000" font-family="sans-serif" font-size="27.5" lengthAdjust="spacing" textLength="265" x="1436.25" y="593.4869">shape key : ⒶⒷⒸ ...</text><text fill="#000000" font-family="sans-serif" font-size="27.5" lengthAdjust="spacing" textLength="125" x="1436.25" y="630.9416">start time</text><text fill="#000000" font-family="sans-serif" font-size="27.5" lengthAdjust="spacing" textLength="115" x="1436.25" y="668.3963">end time</text><!--MD5=[cd01345b943a129009cfe785f3e5db2c]
class Capture--><rect fill="#FEFECE" filter="url(#f1abkm36dy29rq)" height="80" id="Capture" style="stroke:#A80036;stroke-width:3.75;" width="192.5" x="692.5" y="539.0896"/><ellipse cx="730" cy="579.0896" fill="#ADD1B2" rx="27.5" ry="27.5" style="stroke:#A80036;stroke-width:2.5;"/><path d="M728.6719,596.3943 Q724.2969,596.3943 721.4453,594.5584 Q718.6328,592.6834 717.2266,589.324 Q715.8594,585.9256 715.8594,581.4334 Q715.8594,576.3552 717.5,572.7224 Q719.1406,569.0896 722.3438,567.1365 Q725.5469,565.1834 730.2344,565.1834 Q732.4609,565.1834 734.1406,565.6521 Q735.8203,566.0818 737.5391,566.9412 L735.5078,571.9802 Q733.9453,571.199 732.5781,570.8865 Q731.25,570.574 730.0391,570.574 Q727.1094,570.574 725.3516,571.9021 Q723.5938,573.2302 722.8516,575.6131 Q722.1094,577.9959 722.1094,581.1599 Q722.1094,586.199 723.9063,588.6209 Q725.7031,591.0037 729.6875,591.0037 Q731.1719,591.0037 732.7344,590.6131 Q734.2969,590.2224 736.3672,589.2849 L736.3672,594.8318 Q734.5313,595.6131 732.5391,596.0037 Q730.5859,596.3943 728.6719,596.3943 Z " fill="#000000"/><text fill="#000000" font-family="sans-serif" font-size="30" lengthAdjust="spacing" textLength="112.5" x="765" y="590.7297">Capture</text><path d="M348.75,113.7896 L348.75,271.5847 A0,0 0 0 0 348.75,271.5847 L778.75,271.5847 L788.75,539.9396 L798.75,271.5847 L1228.75,271.5847 A0,0 0 0 0 1228.75,271.5847 L1228.75,138.7896 L1203.75,113.7896 L348.75,113.7896 A0,0 0 0 0 348.75,113.7896 " fill="#FBFB77" filter="url(#f1abkm36dy29rq)" style="stroke:#A80036;stroke-width:2.5;"/><path d="M1203.75,113.7896 L1203.75,138.7896 L1228.75,138.7896 L1203.75,113.7896 " fill="#FBFB77" style="stroke:#A80036;stroke-width:2.5;"/><text fill="#000000" font-family="sans-serif" font-size="32.5" lengthAdjust="spacing" textLength="607.5" x="363.75" y="161.0321">Capture properties are bound to Blender</text><text fill="#000000" font-family="monospace" font-size="32.5" font-weight="bold" lengthAdjust="spacing" textLength="100" x="978.75" y="161.0321">Scene</text><text fill="#000000" font-family="sans-serif" font-size="32.5" lengthAdjust="spacing" textLength="7.5" x="1078.75" y="161.0321">.</text><text fill="#000000" font-family="sans-serif" font-size="32.5" lengthAdjust="spacing" textLength="320" x="363.75" y="205.2972">There can be multiple</text><text fill="#000000" font-family="monospace" font-size="32.5" font-weight="bold" lengthAdjust="spacing" textLength="160" x="691.25" y="205.2972">Captures</text><text fill="#000000" font-family="sans-serif" font-size="32.5" lengthAdjust="spacing" textLength="85" x="858.75" y="205.2972">in the</text><text fill="#000000" font-family="monospace" font-size="32.5" font-weight="bold" lengthAdjust="spacing" textLength="100" x="951.25" y="205.2972">Scene</text><text fill="#000000" font-family="sans-serif" font-size="32.5" lengthAdjust="spacing" textLength="7.5" x="1051.25" y="205.2972">.</text><text fill="#000000" font-family="sans-serif" font-size="32.5" lengthAdjust="spacing" textLength="202.5" x="363.75" y="249.5622">There is list of</text><text fill="#000000" font-family="monospace" font-size="32.5" font-weight="bold" lengthAdjust="spacing" textLength="80" x="573.75" y="249.5622">Cues</text><text fill="#000000" font-family="sans-serif" font-size="32.5" lengthAdjust="spacing" textLength="415" x="661.25" y="249.5622">captured from the provided</text><text fill="#000000" font-family="monospace" font-size="32.5" font-weight="bold" lengthAdjust="spacing" textLength="100" x="1083.75" y="249.5622">Sound</text><text fill="#000000" font-family="sans-serif" font-size="32.5" lengthAdjust="spacing" textLength="7.5" x="1183.75" y="249.5622">.</text><!--MD5=[08216c19cb97d403266808c8a971aedd]
link Scene to Sound--><!--MD5=[5e61073f243cc1d930ce90a83314aa47]
link Scene to Capture--><path codeLine="21" d="M221,545.8396 C244.95,537.8646 263.75,531.5896 263.75,531.5896 C263.75,531.5896 588.75,531.5896 588.75,531.5896 C588.75,531.5896 625.3,540.3896 666.975,550.4146 " fill="none" id="Scene-to-Capture" style="stroke:#A80036;stroke-width:2.5;"/><polygon fill="#A80036" points="690.775,556.7396,671.2467,541.7431,678.6234,553.8089,666.5576,561.1857,690.775,556.7396" style="stroke:#A80036;stroke-width:2.5;"/><text fill="#000000" font-family="sans-serif" font-size="32.5" lengthAdjust="spacing" textLength="320" x="266.25" y="521.3321">Captures in the scene</text><text fill="#000000" font-family="sans-serif" font-size="32.5" lengthAdjust="spacing" textLength="17.5" x="655.2557" y="540.5721">*</text><!--MD5=[3b20a1d865f01a24b78529057621751f]
link Capture to Sound--><path codeLine="22" d="M718.325,619.0146 C601.8,680.8896 368.025,805.0646 229.325,878.7146 " fill="none" id="Capture-to-Sound" style="stroke:#A80036;stroke-width:2.5;"/><polygon fill="#A80036" points="218.7,885.6896,243.2623,883.9745,229.7413,879.8295,233.8862,866.3085,218.7,885.6896" style="stroke:#A80036;stroke-width:2.5;"/><!--MD5=[c5eaaa2e539a7c137cd1f95d16f546e7]
link Capture to Cue--><path codeLine="23" d="M883.925,556.7396 C934.975,544.4146 988.125,531.5896 988.125,531.5896 C988.125,531.5896 1318.125,531.5896 1318.125,531.5896 C1318.125,531.5896 1352.5,538.1646 1395.675,546.4396 " fill="none" id="Capture-to-Cue" style="stroke:#A80036;stroke-width:2.5;"/><polygon fill="#A80036" points="1419.425,551.4646,1399.1729,537.461,1407.1423,549.1438,1395.4595,557.1132,1419.425,551.4646" style="stroke:#A80036;stroke-width:2.5;"/><text fill="#000000" font-family="sans-serif" font-size="32.5" lengthAdjust="spacing" textLength="325" x="990.625" y="521.3321">Captured mouth cues</text><text fill="#000000" font-family="sans-serif" font-size="32.5" lengthAdjust="spacing" textLength="17.5" x="1383.5196" y="537.0993">*</text><!--MD5=[b98b4e4496513471c6a12527fc351d6a]
@startuml
!include template.iuml
title Capture components

' component "Apache ActiveMQ Artemis" as jms {    
'     queue "logging.rawEvent" as rawEventQ
' }

together {
class Scene<<Blender>>
class Sound<<Blender>>
}

Scene-down[hidden]-Sound

class Cue {
    shape key : ⒶⒷⒸ ...
    start time
    end time
}

Scene -> "*" Capture : Captures in the scene
Capture - -> Sound
Capture -> "*" Cue : Captured mouth cues

note top of Capture
  Capture properties are bound to Blender $q(Scene).
  There can be multiple $q(Captures) in the $q(Scene).
  There is list of $q(Cues) captured from the provided $q(Sound).
end note

@enduml

@startuml
skinparam dpi 240
allowmixing
hide empty members
skinparam lineType polyline
skinparam titleBorderThickness 2
skinparam titleBorderRoundCorner 15

skinparam class {	
	BackgroundColor<<Blender>> LightBlue
	BorderColor<<Blender>> Blue
}

skinparam class {	
	BackgroundColor<<TBD>> LightGrey
	BorderColor<<TBD>> Grey
}
skinparam stereotypeCBackgroundColor<<TBD>> DimGray



title Capture components


together {
class Scene<<Blender>>
class Sound<<Blender>>
}

Scene-down[hidden]-Sound

class Cue {
    shape key : ⒶⒷⒸ ...
    start time
    end time
}

Scene -> "*" Capture : Captures in the scene
Capture - -> Sound
Capture -> "*" Cue : Captured mouth cues

note top of Capture
  Capture properties are bound to Blender **""Scene""**.
  There can be multiple **""Captures""** in the **""Scene""**.
  There is list of **""Cues""** captured from the provided **""Sound""**.
end note

@enduml

PlantUML version 1.2021.00(Sun Jan 10 11:25:05 CET 2021)
(MIT source distribution)
Java Runtime: OpenJDK Runtime Environment
JVM: OpenJDK 64-Bit Server VM
Default Encoding: UTF-8
Language: en
Country: US
--></g></svg>