<?xml version="1.0" encoding="UTF-8" standalone="no"?><svg xmlns="http://www.w3.org/2000/svg" xmlns:xlink="http://www.w3.org/1999/xlink" contentScriptType="application/ecmascript" contentStyleType="text/css" height="1582.5px" preserveAspectRatio="none" style="width:1950px;height:1582px;" version="1.1" viewBox="0 0 1950 1582" width="1950px" zoomAndPan="magnify"><defs><filter height="300%" id="f1r5ol1d94xose" width="300%" x="-1" y="-1"><feGaussianBlur result="blurOut" stdDeviation="5.0"/><feColorMatrix in="blurOut" result="blurOut2" type="matrix" values="0 0 0 0 0 0 0 0 0 0 0 0 0 0 0 0 0 0 .4 0"/><feOffset dx="10.0" dy="10.0" in="blurOut2" result="blurOut3"/><feBlend in="SourceGraphic" in2="blurOut3" mode="normal"/></filter></defs><g><rect fill="none" height="86.2896" rx="18.75" ry="18.75" style="stroke:#000000;stroke-width:5.0;" width="507.5" x="704.7483" y="5"/><text fill="#000000" font-family="sans-serif" font-size="45" lengthAdjust="spacing" textLength="467.5" x="724.7483" y="65.6047">Mapping components</text><!--MD5=[f8e7078f77c005d15b486c0c98deb1e6]
class Action--><rect codeLine="11" fill="#ADD8E6" filter="url(#f1r5ol1d94xose)" height="106.7206" id="Action" style="stroke:#0000FF;stroke-width:3.75;" width="202.5" x="1541.25" y="452.2396"/><ellipse cx="1578.75" cy="505.5999" fill="#ADD1B2" rx="27.5" ry="27.5" style="stroke:#0000FF;stroke-width:2.5;"/><path d="M1577.4219,522.9046 Q1573.0469,522.9046 1570.1953,521.0687 Q1567.3828,519.1937 1565.9766,515.8343 Q1564.6094,512.4358 1564.6094,507.9437 Q1564.6094,502.8655 1566.25,499.2327 Q1567.8906,495.5999 1571.0938,493.6468 Q1574.2969,491.6937 1578.9844,491.6937 Q1581.2109,491.6937 1582.8906,492.1624 Q1584.5703,492.5921 1586.2891,493.4515 L1584.2578,498.4905 Q1582.6953,497.7093 1581.3281,497.3968 Q1580,497.0843 1578.7891,497.0843 Q1575.8594,497.0843 1574.1016,498.4124 Q1572.3438,499.7405 1571.6016,502.1233 Q1570.8594,504.5062 1570.8594,507.6702 Q1570.8594,512.7093 1572.6563,515.1312 Q1574.4531,517.514 1578.4375,517.514 Q1579.9219,517.514 1581.4844,517.1233 Q1583.0469,516.7327 1585.1172,515.7952 L1585.1172,521.3421 Q1583.2813,522.1233 1581.2891,522.514 Q1579.3359,522.9046 1577.4219,522.9046 Z " fill="#000000"/><text fill="#000000" font-family="sans-serif" font-size="30" font-style="italic" lengthAdjust="spacing" textLength="132.5" x="1608.75" y="496.8098">«Blender»</text><text fill="#000000" font-family="sans-serif" font-size="30" lengthAdjust="spacing" textLength="87.5" x="1631.25" y="537.6701">Action</text><!--MD5=[aa7f586532e18719e6cefa70fc650583]
class Object--><rect codeLine="12" fill="#ADD8E6" filter="url(#f1r5ol1d94xose)" height="106.7206" id="Object" style="stroke:#0000FF;stroke-width:3.75;" width="202.5" x="1541.25" y="863.7896"/><ellipse cx="1578.75" cy="917.1499" fill="#ADD1B2" rx="27.5" ry="27.5" style="stroke:#0000FF;stroke-width:2.5;"/><path d="M1577.4219,934.4546 Q1573.0469,934.4546 1570.1953,932.6187 Q1567.3828,930.7437 1565.9766,927.3843 Q1564.6094,923.9858 1564.6094,919.4937 Q1564.6094,914.4155 1566.25,910.7827 Q1567.8906,907.1499 1571.0938,905.1968 Q1574.2969,903.2437 1578.9844,903.2437 Q1581.2109,903.2437 1582.8906,903.7124 Q1584.5703,904.1421 1586.2891,905.0015 L1584.2578,910.0405 Q1582.6953,909.2593 1581.3281,908.9468 Q1580,908.6343 1578.7891,908.6343 Q1575.8594,908.6343 1574.1016,909.9624 Q1572.3438,911.2905 1571.6016,913.6733 Q1570.8594,916.0562 1570.8594,919.2202 Q1570.8594,924.2593 1572.6563,926.6812 Q1574.4531,929.064 1578.4375,929.064 Q1579.9219,929.064 1581.4844,928.6733 Q1583.0469,928.2827 1585.1172,927.3452 L1585.1172,932.8921 Q1583.2813,933.6733 1581.2891,934.064 Q1579.3359,934.4546 1577.4219,934.4546 Z " fill="#000000"/><text fill="#000000" font-family="sans-serif" font-size="30" font-style="italic" lengthAdjust="spacing" textLength="132.5" x="1608.75" y="908.3598">«Blender»</text><text fill="#000000" font-family="sans-serif" font-size="30" lengthAdjust="spacing" textLength="90" x="1630" y="949.2201">Object</text><!--MD5=[ca3c5f10692fbf883a67a6e29d1bd116]
class NLATrack--><rect codeLine="13" fill="#ADD8E6" filter="url(#f1r5ol1d94xose)" height="106.7206" id="NLATrack" style="stroke:#0000FF;stroke-width:3.75;" width="215" x="1482.5" y="1196.2896"/><ellipse cx="1520" cy="1249.6499" fill="#ADD1B2" rx="27.5" ry="27.5" style="stroke:#0000FF;stroke-width:2.5;"/><path d="M1518.6719,1266.9546 Q1514.2969,1266.9546 1511.4453,1265.1187 Q1508.6328,1263.2437 1507.2266,1259.8843 Q1505.8594,1256.4858 1505.8594,1251.9937 Q1505.8594,1246.9155 1507.5,1243.2827 Q1509.1406,1239.6499 1512.3438,1237.6968 Q1515.5469,1235.7437 1520.2344,1235.7437 Q1522.4609,1235.7437 1524.1406,1236.2124 Q1525.8203,1236.6421 1527.5391,1237.5015 L1525.5078,1242.5405 Q1523.9453,1241.7593 1522.5781,1241.4468 Q1521.25,1241.1343 1520.0391,1241.1343 Q1517.1094,1241.1343 1515.3516,1242.4624 Q1513.5938,1243.7905 1512.8516,1246.1733 Q1512.1094,1248.5562 1512.1094,1251.7202 Q1512.1094,1256.7593 1513.9063,1259.1812 Q1515.7031,1261.564 1519.6875,1261.564 Q1521.1719,1261.564 1522.7344,1261.1733 Q1524.2969,1260.7827 1526.3672,1259.8452 L1526.3672,1265.3921 Q1524.5313,1266.1733 1522.5391,1266.564 Q1520.5859,1266.9546 1518.6719,1266.9546 Z " fill="#000000"/><text fill="#000000" font-family="sans-serif" font-size="30" font-style="italic" lengthAdjust="spacing" textLength="132.5" x="1556.25" y="1240.8598">«Blender»</text><text fill="#000000" font-family="sans-serif" font-size="30" lengthAdjust="spacing" textLength="135" x="1555" y="1281.7201">NLATrack</text><!--MD5=[85b56f863efa8233a8472093debc3b43]
class MapingItem--><rect codeLine="19" fill="#FEFECE" filter="url(#f1r5ol1d94xose)" height="137.4547" id="MapingItem" style="stroke:#A80036;stroke-width:3.75;" width="295" x="657.5" y="437.2396"/><ellipse cx="715.25" cy="477.2396" fill="#ADD1B2" rx="27.5" ry="27.5" style="stroke:#A80036;stroke-width:2.5;"/><path d="M713.9219,494.5443 Q709.5469,494.5443 706.6953,492.7084 Q703.8828,490.8334 702.4766,487.474 Q701.1094,484.0756 701.1094,479.5834 Q701.1094,474.5052 702.75,470.8724 Q704.3906,467.2396 707.5938,465.2865 Q710.7969,463.3334 715.4844,463.3334 Q717.7109,463.3334 719.3906,463.8021 Q721.0703,464.2318 722.7891,465.0912 L720.7578,470.1302 Q719.1953,469.349 717.8281,469.0365 Q716.5,468.724 715.2891,468.724 Q712.3594,468.724 710.6016,470.0521 Q708.8438,471.3802 708.1016,473.7631 Q707.3594,476.1459 707.3594,479.3099 Q707.3594,484.349 709.1563,486.7709 Q710.9531,489.1537 714.9375,489.1537 Q716.4219,489.1537 717.9844,488.7631 Q719.5469,488.3724 721.6172,487.4349 L721.6172,492.9818 Q719.7813,493.7631 717.7891,494.1537 Q715.8359,494.5443 713.9219,494.5443 Z " fill="#000000"/><text fill="#000000" font-family="sans-serif" font-size="30" lengthAdjust="spacing" textLength="170" x="754.75" y="488.8797">MapingItem</text><line style="stroke:#A80036;stroke-width:3.75;" x1="660" x2="950" y1="517.2396" y2="517.2396"/><text fill="#000000" font-family="sans-serif" font-size="27.5" lengthAdjust="spacing" textLength="265" x="672.5" y="556.6369">shape key : ⒶⒷⒸ ...</text><!--MD5=[8c8235635467891bb8259b62642f2549]
class StripPlacement--><rect codeLine="23" fill="#FEFECE" filter="url(#f1r5ol1d94xose)" height="249.8189" id="StripPlacement" style="stroke:#A80036;stroke-width:3.75;" width="292.5" x="1101.25" y="379.8396"/><ellipse cx="1138.75" cy="419.8396" fill="#ADD1B2" rx="27.5" ry="27.5" style="stroke:#A80036;stroke-width:2.5;"/><path d="M1137.4219,437.1443 Q1133.0469,437.1443 1130.1953,435.3084 Q1127.3828,433.4334 1125.9766,430.074 Q1124.6094,426.6756 1124.6094,422.1834 Q1124.6094,417.1052 1126.25,413.4724 Q1127.8906,409.8396 1131.0938,407.8865 Q1134.2969,405.9334 1138.9844,405.9334 Q1141.2109,405.9334 1142.8906,406.4021 Q1144.5703,406.8318 1146.2891,407.6912 L1144.2578,412.7302 Q1142.6953,411.949 1141.3281,411.6365 Q1140,411.324 1138.7891,411.324 Q1135.8594,411.324 1134.1016,412.6521 Q1132.3438,413.9802 1131.6016,416.3631 Q1130.8594,418.7459 1130.8594,421.9099 Q1130.8594,426.949 1132.6563,429.3709 Q1134.4531,431.7537 1138.4375,431.7537 Q1139.9219,431.7537 1141.4844,431.3631 Q1143.0469,430.9724 1145.1172,430.0349 L1145.1172,435.5818 Q1143.2813,436.3631 1141.2891,436.7537 Q1139.3359,437.1443 1137.4219,437.1443 Z " fill="#000000"/><text fill="#000000" font-family="sans-serif" font-size="30" lengthAdjust="spacing" textLength="212.5" x="1173.75" y="431.4797">StripPlacement</text><line style="stroke:#A80036;stroke-width:3.75;" x1="1103.75" x2="1391.25" y1="459.8396" y2="459.8396"/><text fill="#000000" font-family="sans-serif" font-size="27.5" lengthAdjust="spacing" textLength="242.5" x="1116.25" y="499.2369">extrapolation type</text><text fill="#000000" font-family="sans-serif" font-size="27.5" lengthAdjust="spacing" textLength="182.5" x="1116.25" y="536.6916">blending type</text><text fill="#000000" font-family="sans-serif" font-size="27.5" lengthAdjust="spacing" textLength="142.5" x="1116.25" y="574.1463">offset start</text><text fill="#000000" font-family="sans-serif" font-size="27.5" lengthAdjust="spacing" textLength="132.5" x="1116.25" y="611.6011">offset end</text><!--MD5=[b4ca6c66a43296c0049d1e13d6d6becb]
class Mapping--><rect fill="#FEFECE" filter="url(#f1r5ol1d94xose)" height="80" id="Mapping" style="stroke:#A80036;stroke-width:3.75;" width="202.5" x="761.25" y="877.1396"/><ellipse cx="798.75" cy="917.1396" fill="#ADD1B2" rx="27.5" ry="27.5" style="stroke:#A80036;stroke-width:2.5;"/><path d="M797.4219,934.4443 Q793.0469,934.4443 790.1953,932.6084 Q787.3828,930.7334 785.9766,927.374 Q784.6094,923.9756 784.6094,919.4834 Q784.6094,914.4052 786.25,910.7724 Q787.8906,907.1396 791.0938,905.1865 Q794.2969,903.2334 798.9844,903.2334 Q801.2109,903.2334 802.8906,903.7021 Q804.5703,904.1318 806.2891,904.9912 L804.2578,910.0302 Q802.6953,909.249 801.3281,908.9365 Q800,908.624 798.7891,908.624 Q795.8594,908.624 794.1016,909.9521 Q792.3438,911.2802 791.6016,913.6631 Q790.8594,916.0459 790.8594,919.2099 Q790.8594,924.249 792.6563,926.6709 Q794.4531,929.0537 798.4375,929.0537 Q799.9219,929.0537 801.4844,928.6631 Q803.0469,928.2724 805.1172,927.3349 L805.1172,932.8818 Q803.2813,933.6631 801.2891,934.0537 Q799.3359,934.4443 797.4219,934.4443 Z " fill="#000000"/><text fill="#000000" font-family="sans-serif" font-size="30" lengthAdjust="spacing" textLength="122.5" x="833.75" y="928.7797">Mapping</text><!--MD5=[934075bcc69bf31f815af25f3b11f9bf]
class NLATrackRef--><rect fill="#FEFECE" filter="url(#f1r5ol1d94xose)" height="80" id="NLATrackRef" style="stroke:#A80036;stroke-width:3.75;" width="260" x="990" y="1209.6396"/><ellipse cx="1027.5" cy="1249.6396" fill="#ADD1B2" rx="27.5" ry="27.5" style="stroke:#A80036;stroke-width:2.5;"/><path d="M1026.1719,1266.9443 Q1021.7969,1266.9443 1018.9453,1265.1084 Q1016.1328,1263.2334 1014.7266,1259.874 Q1013.3594,1256.4756 1013.3594,1251.9834 Q1013.3594,1246.9052 1015,1243.2724 Q1016.6406,1239.6396 1019.8438,1237.6865 Q1023.0469,1235.7334 1027.7344,1235.7334 Q1029.9609,1235.7334 1031.6406,1236.2021 Q1033.3203,1236.6318 1035.0391,1237.4912 L1033.0078,1242.5302 Q1031.4453,1241.749 1030.0781,1241.4365 Q1028.75,1241.124 1027.5391,1241.124 Q1024.6094,1241.124 1022.8516,1242.4521 Q1021.0938,1243.7802 1020.3516,1246.1631 Q1019.6094,1248.5459 1019.6094,1251.7099 Q1019.6094,1256.749 1021.4063,1259.1709 Q1023.2031,1261.5537 1027.1875,1261.5537 Q1028.6719,1261.5537 1030.2344,1261.1631 Q1031.7969,1260.7724 1033.8672,1259.8349 L1033.8672,1265.3818 Q1032.0313,1266.1631 1030.0391,1266.5537 Q1028.0859,1266.9443 1026.1719,1266.9443 Z " fill="#000000"/><text fill="#000000" font-family="sans-serif" font-size="30" lengthAdjust="spacing" textLength="180" x="1062.5" y="1261.2797">NLATrackRef</text><path d="M1146.25,113.7896 L1146.25,227.3197 A0,0 0 0 0 1146.25,227.3197 L1412.35,227.3197 L1325.975,379.2396 L1432.35,227.3197 L1768.75,227.3197 A0,0 0 0 0 1768.75,227.3197 L1768.75,138.7896 L1743.75,113.7896 L1146.25,113.7896 A0,0 0 0 0 1146.25,113.7896 " fill="#FBFB77" filter="url(#f1r5ol1d94xose)" style="stroke:#A80036;stroke-width:2.5;"/><path d="M1743.75,113.7896 L1743.75,138.7896 L1768.75,138.7896 L1743.75,113.7896 " fill="#FBFB77" style="stroke:#A80036;stroke-width:2.5;"/><text fill="#000000" font-family="sans-serif" font-size="32.5" lengthAdjust="spacing" textLength="570" x="1161.25" y="161.0321">Describes initial properties and how to</text><text fill="#000000" font-family="sans-serif" font-size="32.5" lengthAdjust="spacing" textLength="135" x="1161.25" y="205.2972">place the</text><text fill="#000000" font-family="monospace" font-size="32.5" font-weight="bold" lengthAdjust="spacing" textLength="180" x="1303.75" y="205.2972">NLAStrips</text><text fill="#000000" font-family="sans-serif" font-size="32.5" lengthAdjust="spacing" textLength="195" x="1491.25" y="205.2972">while baking.</text><path d="M131.25,135.9396 L131.25,205.2047 A0,0 0 0 0 131.25,205.2047 L605.9,205.2047 L763.675,437.4896 L625.9,205.2047 L1058.75,205.2047 A0,0 0 0 0 1058.75,205.2047 L1058.75,160.9396 L1033.75,135.9396 L131.25,135.9396 A0,0 0 0 0 131.25,135.9396 " fill="#FBFB77" filter="url(#f1r5ol1d94xose)" style="stroke:#A80036;stroke-width:2.5;"/><path d="M1033.75,135.9396 L1033.75,160.9396 L1058.75,160.9396 L1033.75,135.9396 " fill="#FBFB77" style="stroke:#A80036;stroke-width:2.5;"/><text fill="#000000" font-family="sans-serif" font-size="32.5" lengthAdjust="spacing" textLength="172.5" x="146.25" y="183.1821">Links single</text><text fill="#000000" font-family="monospace" font-size="32.5" font-weight="bold" lengthAdjust="spacing" textLength="60" x="326.25" y="183.1821">Cue</text><text fill="#000000" font-family="sans-serif" font-size="32.5" lengthAdjust="spacing" textLength="152.5" x="393.75" y="183.1821">type to an</text><text fill="#000000" font-family="monospace" font-size="32.5" font-weight="bold" lengthAdjust="spacing" textLength="120" x="553.75" y="183.1821">Action</text><text fill="#000000" font-family="sans-serif" font-size="32.5" lengthAdjust="spacing" textLength="32.5" x="681.25" y="183.1821">or</text><text fill="#000000" font-family="monospace" font-size="32.5" font-weight="bold" lengthAdjust="spacing" textLength="300" x="721.25" y="183.1821">ShapeKey Action</text><path d="M15,838.2396 L15,996.0347 A0,0 0 0 0 15,996.0347 L615,996.0347 A0,0 0 0 0 615,996.0347 L615,927.1396 L761.625,917.1396 L615,907.1396 L615,863.2396 L590,838.2396 L15,838.2396 A0,0 0 0 0 15,838.2396 " fill="#FBFB77" filter="url(#f1r5ol1d94xose)" style="stroke:#A80036;stroke-width:2.5;"/><path d="M590,838.2396 L590,863.2396 L615,863.2396 L590,838.2396 " fill="#FBFB77" style="stroke:#A80036;stroke-width:2.5;"/><text fill="#000000" font-family="sans-serif" font-size="32.5" lengthAdjust="spacing" textLength="230" x="30" y="885.4821">Mapping of the</text><text fill="#000000" font-family="monospace" font-size="32.5" font-weight="bold" lengthAdjust="spacing" textLength="140" x="267.5" y="885.4821">Capture</text><text fill="#000000" font-family="sans-serif" font-size="32.5" lengthAdjust="spacing" textLength="155" x="415" y="885.4821">properties</text><text fill="#000000" font-family="sans-serif" font-size="32.5" lengthAdjust="spacing" textLength="32.5" x="30" y="929.7472">to</text><text fill="#000000" font-family="monospace" font-size="32.5" font-weight="bold" lengthAdjust="spacing" textLength="280" x="77.5" y="929.7472">Object Actions</text><text fill="#000000" font-family="sans-serif" font-size="32.5" lengthAdjust="spacing" textLength="7.5" x="357.5" y="929.7472">.</text><text fill="#000000" font-family="sans-serif" font-size="32.5" lengthAdjust="spacing" textLength="262.5" x="30" y="974.0122">Bound to Blender</text><text fill="#000000" font-family="monospace" font-size="32.5" font-weight="bold" lengthAdjust="spacing" textLength="120" x="300" y="974.0122">Object</text><text fill="#000000" font-family="sans-serif" font-size="32.5" lengthAdjust="spacing" textLength="7.5" x="420" y="974.0122">.</text><path d="M663.75,1492.1396 L663.75,1561.4047 A0,0 0 0 0 663.75,1561.4047 L1576.25,1561.4047 A0,0 0 0 0 1576.25,1561.4047 L1576.25,1517.1396 L1551.25,1492.1396 L1130,1492.1396 L1120,1288.8396 L1110,1492.1396 L663.75,1492.1396 A0,0 0 0 0 663.75,1492.1396 " fill="#FBFB77" filter="url(#f1r5ol1d94xose)" style="stroke:#A80036;stroke-width:2.5;"/><path d="M1551.25,1492.1396 L1551.25,1517.1396 L1576.25,1517.1396 L1551.25,1492.1396 " fill="#FBFB77" style="stroke:#A80036;stroke-width:2.5;"/><text fill="#000000" font-family="sans-serif" font-size="32.5" lengthAdjust="spacing" textLength="167.5" x="678.75" y="1539.3821">One or two</text><text fill="#000000" font-family="monospace" font-size="32.5" font-weight="bold" lengthAdjust="spacing" textLength="180" x="853.75" y="1539.3821">NLATracks</text><text fill="#000000" font-family="sans-serif" font-size="32.5" lengthAdjust="spacing" textLength="302.5" x="1041.25" y="1539.3821">to bake the mapped</text><text fill="#000000" font-family="monospace" font-size="32.5" font-weight="bold" lengthAdjust="spacing" textLength="140" x="1351.25" y="1539.3821">Actions</text><text fill="#000000" font-family="sans-serif" font-size="32.5" lengthAdjust="spacing" textLength="40" x="1498.75" y="1539.3821">to.</text><!--MD5=[aeaa8e6c195787b4f7382c31e8a39cec]
link Action to Object--><!--MD5=[69be874b038ab815a9a728c51be17441]
link Object to NLATrack--><!--MD5=[412229251ce289d76d77a62b8e4cce26]
link Object to Mapping--><path codeLine="32" d="M1571.25,971.4146 C1534.825,1000.1896 1497.5,1029.6396 1497.5,1029.6396 C1497.5,1029.6396 1067.5,1029.6396 1067.5,1029.6396 C1067.5,1029.6396 1013.1,999.4396 960.7,970.3146 " fill="none" id="Object-to-Mapping" style="stroke:#A80036;stroke-width:2.5;"/><polygon fill="#A80036" points="939.475,957.1396,954.2871,976.8082,950.402,963.2102,964,959.325,939.475,957.1396" style="stroke:#A80036;stroke-width:2.5;"/><text fill="#000000" font-family="sans-serif" font-size="32.5" lengthAdjust="spacing" textLength="425" x="1070" y="1019.3821">Object's Mapping properties</text><text fill="#000000" font-family="sans-serif" font-size="32.5" lengthAdjust="spacing" textLength="50" x="983.4513" y="987.6656">0..1</text><!--MD5=[e0a7d10e6bf56718c7087a75d3c01b45]
reverse link MapingItem to Mapping--><path codeLine="33" d="M816.175,586.4896 C828.55,674.0896 847.95,811.5396 857.225,877.2396 " fill="none" id="MapingItem-backto-Mapping" style="stroke:#A80036;stroke-width:2.5;"/><polygon fill="#A80036" points="814.1,574.2896,807.3443,597.9668,815.8478,586.6668,827.1478,595.1704,814.1,574.2896" style="stroke:#A80036;stroke-width:2.5;"/><text fill="#000000" font-family="sans-serif" font-size="32.5" lengthAdjust="spacing" textLength="295" x="842.5" y="741.8821">Cue (type) mapping</text><text fill="#000000" font-family="sans-serif" font-size="32.5" lengthAdjust="spacing" textLength="17.5" x="797.0988" y="628.8058">*</text><!--MD5=[ddc160245b7ba7b303ad419223ac1246]
reverse link StripPlacement to Mapping--><path codeLine="34" d="M1198.65,643.9646 C1178.6,700.0896 1160,752.1396 1160,752.1396 C1160,752.1396 1018.575,829.3896 930.75,877.3646 " fill="none" id="StripPlacement-backto-Mapping" style="stroke:#A80036;stroke-width:2.5;"/><polygon fill="#A80036" points="1203.5,632.9146,1186.491,650.7175,1199.2799,644.6807,1205.3168,657.4696,1203.5,632.9146" style="stroke:#A80036;stroke-width:2.5;"/><!--MD5=[a76ef8e5f44c52b90950114fa6f7c405]
link Mapping to NLATrackRef--><path codeLine="35" d="M891.55,956.5896 C938.1,1015.7896 1029.475,1132.0146 1081.45,1198.1146 " fill="none" id="Mapping-to-NLATrackRef" style="stroke:#A80036;stroke-width:2.5;"/><polygon fill="#A80036" points="1090.675,1207.3396,1084.5875,1183.4819,1082.9318,1197.5268,1068.8869,1195.8711,1090.675,1207.3396" style="stroke:#A80036;stroke-width:2.5;"/><text fill="#000000" font-family="sans-serif" font-size="32.5" lengthAdjust="spacing" textLength="50" x="1020.6427" y="1179.8954">1..2</text><!--MD5=[59d523d94128d4a4a5d9ddef0313641a]
reverse link NLATrack to NLATrackRef--><path codeLine="37" d="M1481.8,1249.6396 C1412.85,1249.6396 1322.425,1249.6396 1249.575,1249.6396 " fill="none" id="NLATrack-backto-NLATrackRef" style="stroke:#A80036;stroke-width:2.5;"/><polygon fill="#A80036" points="1481.8,1249.6396,1459.3,1239.6396,1469.3,1249.6396,1459.3,1259.6396,1481.8,1249.6396" style="stroke:#A80036;stroke-width:2.5;"/><!--MD5=[35e4e4e1deba72cfdcbfc631ddb451d8]
reverse link Action to MapingItem--><path codeLine="38" d="M1572.95,443.2396 C1499.35,378.1646 1393.75,284.7896 1393.75,284.7896 C1393.75,284.7896 1101.25,284.7896 1101.25,284.7896 C1101.25,284.7896 982.625,372.8646 895.5,437.5396 " fill="none" id="Action-backto-MapingItem" style="stroke:#A80036;stroke-width:2.5;"/><polygon fill="#A80036" points="1581.05,450.1146,1570.8344,427.7117,1571.6916,441.8278,1557.5755,442.6851,1581.05,450.1146" style="stroke:#A80036;stroke-width:2.5;"/><text fill="#000000" font-family="sans-serif" font-size="32.5" lengthAdjust="spacing" textLength="320" x="1614.4966" y="422.3929">0..2 (ShapeKey)Action</text><!--MD5=[350710790d0b0743f9676d7d66c49e06]
@startuml
!include template.iuml
title Mapping components



' component "Apache ActiveMQ Artemis" as jms {    
'     queue "logging.rawEvent" as rawEventQ
' }

together {
class Action<<Blender>>
class Object<<Blender>>
class NLATrack<<Blender>>
}

Action-down[hidden]-Object
Object-down[hidden]-NLATrack

class MapingItem {
    shape key : ⒶⒷⒸ ...    
}

class StripPlacement {
    extrapolation type
    blending type
    offset start
    offset end
}



Object -> "0..1" Mapping : Object's Mapping properties
Mapping -up-> "*" MapingItem : Cue (type) mapping
Mapping -up-> StripPlacement
Mapping -down> "1..2" NLATrackRef

NLATrackRef -left-> NLATrack
MapingItem -left-> "0..2 (ShapeKey)Action" Action

note top of StripPlacement
  Describes initial properties and how to
  place the $q(NLAStrips) while baking.
end note

note top of MapingItem
  Links single $q(Cue) type to an $q(Action) or $q(ShapeKey Action)
end note

note left of Mapping
  Mapping of the $q(Capture) properties 
  to  $q(Object Actions).
  Bound to Blender $q(Object).
end note

note bottom of NLATrackRef
  One or two $q(NLATracks) to bake the mapped $q(Actions) to.
end note


@enduml

@startuml
skinparam dpi 240
allowmixing
hide empty members
skinparam lineType polyline
skinparam titleBorderThickness 2
skinparam titleBorderRoundCorner 15

skinparam class {	
	BackgroundColor<<Blender>> LightBlue
	BorderColor<<Blender>> Blue
}

skinparam class {	
	BackgroundColor<<TBD>> LightGrey
	BorderColor<<TBD>> Grey
}
skinparam stereotypeCBackgroundColor<<TBD>> DimGray



title Mapping components




together {
class Action<<Blender>>
class Object<<Blender>>
class NLATrack<<Blender>>
}

Action-down[hidden]-Object
Object-down[hidden]-NLATrack

class MapingItem {
    shape key : ⒶⒷⒸ ...    
}

class StripPlacement {
    extrapolation type
    blending type
    offset start
    offset end
}



Object -> "0..1" Mapping : Object's Mapping properties
Mapping -up-> "*" MapingItem : Cue (type) mapping
Mapping -up-> StripPlacement
Mapping -down> "1..2" NLATrackRef

NLATrackRef -left-> NLATrack
MapingItem -left-> "0..2 (ShapeKey)Action" Action

note top of StripPlacement
  Describes initial properties and how to
  place the **""NLAStrips""** while baking.
end note

note top of MapingItem
  Links single **""Cue""** type to an **""Action""** or **""ShapeKey Action""**
end note

note left of Mapping
  Mapping of the **""Capture""** properties 
  to  **""Object Actions""**.
  Bound to Blender **""Object""**.
end note

note bottom of NLATrackRef
  One or two **""NLATracks""** to bake the mapped **""Actions""** to.
end note


@enduml

PlantUML version 1.2021.00(Sun Jan 10 11:25:05 CET 2021)
(MIT source distribution)
Java Runtime: OpenJDK Runtime Environment
JVM: OpenJDK 64-Bit Server VM
Default Encoding: UTF-8
Language: en
Country: US
--></g></svg>